<svg version="1.1" id="Layer_1" xmlns="http://www.w3.org/2000/svg" xmlns:xlink="http://www.w3.org/1999/xlink" x="0px" y="0px"
	 width="100%" viewBox="0 0 451 435" enable-background="new 0 0 451 435" xml:space="preserve">
<path fill="#FBF8EE" opacity="1.000000" stroke="none" 
	d="
M203.000000,436.000000 
	C135.686081,436.000000 68.372169,436.000000 1.029125,436.000000 
	C1.029125,291.061249 1.029125,146.122467 1.029125,1.091845 
	C151.228699,1.091845 301.457489,1.091845 452.000000,1.091845 
	C452.000000,141.687943 452.000000,282.376129 451.531586,423.549194 
	C416.231354,424.034119 381.399536,424.034119 346.000000,424.034119 
	C346.000000,428.450562 346.000000,432.225281 346.000000,436.000000 
	C334.311890,436.000000 322.623810,436.000000 310.618530,435.678711 
	C325.062622,429.273651 338.550751,421.042847 350.174866,410.136047 
	C385.060455,377.403229 400.369690,337.098907 394.779175,289.526825 
	C390.864868,256.218018 375.964691,228.132278 351.197998,205.013412 
	C347.391296,201.139664 343.699158,197.554001 339.942932,193.861649 
	C339.878784,193.754944 339.630127,193.742065 339.500366,193.435822 
	C338.581970,192.416428 337.793335,191.703293 336.887024,190.781830 
	C336.573730,190.310516 336.324921,190.115356 335.929626,189.667175 
	C328.256042,181.665329 320.729950,173.929749 313.075897,166.322952 
	C308.158630,161.436050 303.053070,156.738663 298.015930,151.977997 
	C298.000000,151.999664 298.043427,151.968033 297.941711,151.651779 
	C294.651917,148.344025 291.463806,145.352524 288.233826,142.200562 
	C288.063416,141.834213 287.877838,141.728271 287.485168,141.403687 
	C282.548523,136.807358 277.761932,132.529633 272.853943,128.100052 
	C272.732574,127.948181 272.355316,127.854164 272.183319,127.556000 
	C259.179413,118.860123 245.319839,115.134926 229.751968,117.998215 
	C229.334335,118.026352 229.171280,118.075500 228.604507,118.088440 
	C222.380493,120.177017 216.560196,122.301804 210.525681,124.503952 
	C210.311462,124.581322 209.984528,124.898521 209.623260,124.917831 
	C200.240967,130.008438 192.705734,136.582169 187.812103,146.158234 
	C187.650925,146.326401 187.505005,146.768814 187.250366,146.961365 
	C184.882599,152.317215 182.060837,157.315720 180.813309,162.680328 
	C178.646271,171.998901 177.687820,181.538132 181.278961,191.158752 
	C181.438034,191.988983 181.644363,192.524155 181.864059,193.442734 
	C182.838745,196.086197 183.800049,198.346268 184.758560,200.922058 
	C185.200470,202.148987 185.645172,203.060181 186.111725,204.322205 
	C190.390152,210.143860 194.325821,215.906494 198.975433,221.019958 
	C206.745682,229.565475 214.972092,237.696198 222.537689,245.993378 
	C216.911652,245.991638 211.753906,245.955276 206.597321,246.016174 
	C201.113571,246.080948 199.059357,248.092148 199.011993,253.506287 
	C198.946503,260.992065 198.978302,268.478729 198.638031,275.903412 
	C186.917450,264.395752 175.257751,253.202591 164.212448,241.432861 
	C153.048798,229.537003 145.792999,215.193863 142.411163,199.324173 
	C135.543610,167.097137 142.290222,138.020248 163.529587,112.350677 
	C192.787231,76.990318 247.872299,67.238007 287.499908,90.366280 
	C303.655579,99.795380 315.470215,113.881241 328.524170,126.646095 
	C337.295319,135.223007 345.460907,144.419220 353.804840,153.240509 
	C364.149323,142.881302 373.245972,133.771729 382.487610,124.516922 
	C381.739471,123.622208 380.966980,122.544159 380.042908,121.617188 
	C371.106293,112.652214 362.209320,103.646271 353.173981,94.781532 
	C340.000671,81.856956 327.486908,68.289154 311.584320,58.335888 
	C257.614838,24.556978 184.045563,33.367985 139.812286,79.341873 
	C111.387535,108.885170 98.018173,144.261795 100.290230,185.139175 
	C102.017540,216.215897 113.163055,243.940155 133.967712,267.172455 
	C146.726349,281.419891 160.614273,294.662445 174.118103,308.233826 
	C182.206390,316.362579 190.531876,324.255310 198.802963,332.535400 
	C198.967407,333.181183 199.079651,333.545685 199.112366,334.328918 
	C199.049377,342.547394 200.905685,344.370026 208.466217,343.763733 
	C209.438660,343.982666 210.086700,344.129272 210.847137,344.588623 
	C211.976791,345.997955 212.971130,347.116791 214.014740,348.187653 
	C231.875824,366.515076 258.476227,371.757843 281.573456,361.511108 
	C304.461456,351.357178 318.409668,328.261444 316.564056,302.805603 
	C315.438660,287.283478 309.592407,273.836243 297.237091,263.360840 
	C297.014526,262.403290 296.867706,261.764679 296.833466,260.671082 
	C297.578949,246.594238 296.810394,245.128113 281.537292,246.233002 
	C280.567474,245.992935 279.922394,245.826187 279.175446,245.342468 
	C261.229645,227.077118 243.375549,209.138794 225.546234,191.175888 
	C217.264465,182.832062 216.875198,171.133423 224.548233,162.961258 
	C232.041336,154.980743 244.175461,154.792526 252.770370,162.702942 
	C256.562531,166.193085 260.047455,170.016251 263.686188,173.674011 
	C286.216583,196.322266 309.368500,218.391006 331.138947,241.747482 
	C363.497864,276.463837 364.543579,331.837616 334.664917,368.840149 
	C297.297668,415.116760 229.230713,418.822479 187.152893,376.869080 
	C177.835083,367.578827 168.485382,358.320099 159.224762,348.973175 
	C153.282288,342.975342 147.475937,336.842651 142.185226,331.367249 
	C132.295364,341.222717 123.066833,350.419159 113.475899,359.976715 
	C126.282364,372.677246 139.558197,385.517059 152.458176,398.724030 
	C166.668121,413.272125 182.242828,425.801971 201.013168,434.024811 
	C201.810806,434.374207 202.343750,435.327850 203.000000,436.000000 
z"/>
<path fill="#928056" opacity="1.000000" stroke="none" 
	d="
M272.355316,127.854164 
	C272.355316,127.854164 272.732574,127.948181 272.865540,128.454178 
	C274.607971,131.020615 275.928467,133.429199 277.894043,135.060623 
	C280.907898,137.562134 284.365784,139.528687 287.635223,141.722290 
	C287.877838,141.728271 288.063416,141.834213 288.180969,142.591553 
	C290.834381,146.785904 292.620728,151.411163 298.043427,151.968033 
	C298.043427,151.968033 298.000000,151.999664 298.008881,152.345612 
	C299.034363,154.311447 299.803711,156.171585 301.106934,157.513031 
	C311.059113,167.757187 321.067871,177.948090 331.205353,188.008102 
	C332.344421,189.138458 334.395020,189.350250 336.022919,189.988007 
	C336.324921,190.115356 336.573730,190.310516 336.896820,191.171707 
	C337.892914,192.427292 338.761536,193.084671 339.630127,193.742065 
	C339.630127,193.742065 339.878784,193.754944 339.943665,194.233780 
	C343.297607,198.534348 346.579529,202.362427 349.927521,206.131851 
	C349.993683,206.206360 350.833618,205.593597 351.312561,205.301498 
	C375.964691,228.132278 390.864868,256.218018 394.779175,289.526825 
	C400.369690,337.098907 385.060455,377.403229 350.174866,410.136047 
	C338.550751,421.042847 325.062622,429.273651 310.150696,435.678711 
	C274.645782,436.000000 239.291550,436.000000 203.468658,436.000000 
	C202.343750,435.327850 201.810806,434.374207 201.013168,434.024811 
	C182.242828,425.801971 166.668121,413.272125 152.458176,398.724030 
	C139.558197,385.517059 126.282364,372.677246 113.475899,359.976715 
	C123.066833,350.419159 132.295364,341.222717 142.185226,331.367249 
	C147.475937,336.842651 153.282288,342.975342 159.224762,348.973175 
	C168.485382,358.320099 177.835083,367.578827 187.152893,376.869080 
	C229.230713,418.822479 297.297668,415.116760 334.664917,368.840149 
	C364.543579,331.837616 363.497864,276.463837 331.138947,241.747482 
	C309.368500,218.391006 286.216583,196.322266 263.686188,173.674011 
	C260.047455,170.016251 256.562531,166.193085 252.770370,162.702942 
	C244.175461,154.792526 232.041336,154.980743 224.548233,162.961258 
	C216.875198,171.133423 217.264465,182.832062 225.546234,191.175888 
	C243.375549,209.138794 261.229645,227.077118 278.698730,245.447479 
	C261.872559,245.861542 245.421219,245.853607 228.892487,245.501297 
	C227.352905,244.572983 225.551010,244.350082 224.483978,243.346161 
	C217.892365,237.144455 211.239883,230.979263 205.051956,224.385010 
	C199.433151,218.397278 194.413361,211.849930 189.035645,205.630402 
	C188.341995,204.828140 187.085602,204.512466 186.089874,203.971390 
	C185.645172,203.060181 185.200470,202.148987 184.824890,200.460846 
	C184.617615,197.136658 186.417450,193.635574 181.850677,193.059326 
	C181.644363,192.524155 181.438034,191.988983 181.500809,190.831879 
	C181.565720,185.768188 181.022202,181.310562 181.229111,176.888016 
	C181.639786,168.110413 182.354111,159.359711 187.249146,151.561050 
	C187.992523,150.376709 187.451797,148.386353 187.505005,146.768814 
	C187.505005,146.768814 187.650925,146.326401 188.193161,146.155975 
	C190.039932,145.132446 191.592194,144.501923 192.599014,143.381348 
	C194.912079,140.806931 196.775726,137.818710 199.158340,135.319244 
	C202.611191,131.697067 206.361252,128.358231 209.984528,124.898529 
	C209.984528,124.898521 210.311462,124.581322 210.700104,124.825310 
	C215.179916,123.807327 219.320023,122.680649 223.341553,121.226120 
	C225.342590,120.502373 227.126236,119.177559 229.008209,118.124649 
	C229.171280,118.075500 229.334335,118.026352 230.056000,118.281296 
	C234.722672,118.718399 238.876694,118.510078 242.929199,119.055740 
	C251.275558,120.179581 259.617035,121.420525 266.775726,126.594849 
	C268.196655,127.621910 270.473267,127.465065 272.355316,127.854164 
z"/>
<path fill="#B4B5B1" opacity="1.000000" stroke="none" 
	d="
M346.468658,436.000000 
	C346.000000,432.225281 346.000000,428.450562 346.000000,424.034119 
	C381.399536,424.034119 416.231354,424.034119 451.531586,424.017059 
	C452.000000,427.985107 452.000000,431.970245 452.000000,436.000000 
	C416.979126,436.000000 381.958221,436.000000 346.468658,436.000000 
z"/>
<path fill="#938056" opacity="1.000000" stroke="none" 
	d="
M198.750763,332.254120 
	C190.531876,324.255310 182.206390,316.362579 174.118103,308.233826 
	C160.614273,294.662445 146.726349,281.419891 133.967712,267.172455 
	C113.163055,243.940155 102.017540,216.215897 100.290230,185.139175 
	C98.018173,144.261795 111.387535,108.885170 139.812286,79.341873 
	C184.045563,33.367985 257.614838,24.556978 311.584320,58.335888 
	C327.486908,68.289154 340.000671,81.856956 353.173981,94.781532 
	C362.209320,103.646271 371.106293,112.652214 380.042908,121.617188 
	C380.966980,122.544159 381.739471,123.622208 382.487610,124.516922 
	C373.245972,133.771729 364.149323,142.881302 353.804840,153.240509 
	C345.460907,144.419220 337.295319,135.223007 328.524170,126.646095 
	C315.470215,113.881241 303.655579,99.795380 287.499908,90.366280 
	C247.872299,67.238007 192.787231,76.990318 163.529587,112.350677 
	C142.290222,138.020248 135.543610,167.097137 142.411163,199.324173 
	C145.792999,215.193863 153.048798,229.537003 164.212448,241.432861 
	C175.257751,253.202591 186.917450,264.395752 198.663116,276.247131 
	C199.045303,276.880737 199.072006,277.109070 199.067627,277.783875 
	C198.941299,296.238281 198.846039,314.246216 198.750763,332.254120 
z"/>
<path fill="#4A402C" opacity="1.000000" stroke="none" 
	d="
M198.802979,332.535400 
	C198.846039,314.246216 198.941299,296.238281 199.370422,277.850555 
	C205.401947,283.189240 211.007782,289.003296 216.827072,294.595245 
	C221.285782,298.879730 226.014023,302.883728 230.395386,307.306091 
	C227.428482,310.476105 224.688568,313.352478 221.752686,316.434570 
	C219.942429,312.661591 222.894302,308.388397 218.321396,305.278229 
	C218.321396,311.622986 218.321396,316.966431 218.321396,322.630737 
	C223.007202,322.630737 227.317856,322.712708 231.620514,322.563660 
	C232.513184,322.532776 233.376160,321.644440 234.252838,321.151306 
	C233.312378,320.558624 232.419708,319.575989 231.421616,319.453674 
	C229.281631,319.191406 227.087204,319.373291 224.915054,319.373291 
	C224.830460,318.931396 224.745865,318.489502 224.661255,318.047638 
	C227.431549,315.469147 230.201843,312.890656 233.064880,310.665222 
	C237.102081,314.823853 240.928986,318.761414 245.018173,322.404541 
	C251.417694,328.105896 261.960602,328.349792 267.507263,323.099121 
	C269.099823,323.055817 270.255249,322.969635 271.401459,323.038025 
	C275.337067,323.272827 277.567017,322.059570 277.095428,317.512939 
	C276.707001,313.767975 276.897736,309.962921 276.854797,305.788147 
	C275.995300,300.075104 274.135956,295.460327 269.689667,291.838806 
	C266.566986,289.295410 264.249847,285.763031 261.775391,282.403107 
	C265.724823,278.402069 269.471893,274.670197 273.962799,270.197510 
	C273.962799,274.133636 273.858093,276.626770 274.028137,279.101044 
	C274.077667,279.821869 274.911530,280.488739 275.385925,281.180328 
	C275.933319,280.565369 276.937408,279.963318 276.955200,279.333405 
	C277.088837,274.604095 277.028046,269.869324 277.028046,264.964783 
	C272.044586,264.964783 267.742371,264.889252 263.446991,265.026917 
	C262.561371,265.055267 261.701263,265.878510 260.829376,266.335358 
	C261.759155,266.900848 262.649536,267.855438 263.626556,267.954346 
	C265.983856,268.193024 268.381622,268.031769 270.881714,268.031769 
	C266.730804,272.402557 262.992035,276.339325 258.927063,280.126404 
	C252.132187,273.844666 245.530945,267.844849 239.237000,261.538361 
	C234.252518,256.543945 229.644974,251.173355 225.282425,245.959579 
	C226.786514,245.914780 227.878189,245.880234 228.969879,245.845688 
	C245.421219,245.853607 261.872559,245.861542 278.800598,245.764465 
	C279.922394,245.826187 280.567474,245.992935 281.580688,246.563919 
	C286.872803,251.687454 291.796844,256.406738 296.720886,261.126038 
	C296.867706,261.764679 297.014526,262.403290 297.137024,263.841736 
	C297.077911,286.579010 297.035614,308.516479 297.011078,330.453949 
	C296.995911,344.008636 297.007935,343.978577 283.513580,344.015198 
	C259.253906,344.080994 234.994339,344.186798 210.734741,344.275879 
	C210.086700,344.129272 209.438660,343.982666 208.430267,343.428497 
	C205.110580,339.984009 202.151245,336.947113 199.191910,333.910217 
	C199.079651,333.545685 198.967407,333.181183 198.802979,332.535400 
z"/>
<path fill="#7E7C78" opacity="1.000000" stroke="none" 
	d="
M267.065887,323.127136 
	C261.960602,328.349792 251.417694,328.105896 245.018173,322.404541 
	C240.928986,318.761414 237.102081,314.823853 233.186142,310.388519 
	C235.140656,307.658508 237.066620,305.558289 239.584412,302.812714 
	C234.348358,301.214752 233.496933,306.167236 230.622391,307.012482 
	C226.014023,302.883728 221.285782,298.879730 216.827072,294.595245 
	C211.007782,289.003296 205.401947,283.189240 199.401489,277.404053 
	C199.072006,277.109070 199.045303,276.880737 198.993500,276.308716 
	C198.978302,268.478729 198.946503,260.992065 199.011993,253.506287 
	C199.059357,248.092148 201.113571,246.080948 206.597321,246.016174 
	C211.753906,245.955276 216.911652,245.991638 222.848846,245.994522 
	C224.042557,245.992493 224.456299,245.981155 224.870026,245.969818 
	C229.644974,251.173355 234.252518,256.543945 239.237000,261.538361 
	C245.530945,267.844849 252.132187,273.844666 258.774261,280.412018 
	C258.284088,282.242218 257.620544,283.637115 256.956970,285.032043 
	C258.355743,284.330444 259.755035,283.629944 261.152496,282.925751 
	C261.298218,282.852295 261.433075,282.757294 261.572998,282.672272 
	C264.249847,285.763031 266.566986,289.295410 269.689667,291.838806 
	C274.135956,295.460327 275.995300,300.075104 276.446716,305.776428 
	C275.331421,307.178802 274.217194,308.132690 274.054688,309.227814 
	C273.740540,311.345032 273.962921,313.541809 273.962921,315.705627 
	C273.244080,316.092651 272.525269,316.479675 271.806427,316.866699 
	C267.978455,312.482239 264.215973,308.037140 260.263977,303.767487 
	C259.526245,302.970459 258.028229,302.877075 256.881104,302.458923 
	C256.293610,303.308258 255.706146,304.157562 255.118668,305.006866 
	C260.221619,309.601135 265.324554,314.195374 270.748657,319.078766 
	C269.376038,319.189240 268.543365,319.185425 267.738953,319.334412 
	C265.463348,319.755890 263.199371,320.239960 260.930786,320.699402 
	C262.975830,321.508636 265.020844,322.317902 267.065887,323.127136 
M217.965439,276.339478 
	C218.281250,277.979340 218.597061,279.619171 218.912872,281.259033 
	C219.534729,281.156891 220.156570,281.054749 220.778427,280.952606 
	C220.940292,277.780243 221.102158,274.607910 221.296585,270.797607 
	C222.704422,272.052155 223.579559,272.766235 224.379623,273.556305 
	C227.929337,277.061676 231.411499,280.637543 235.035126,284.064117 
	C235.704071,284.696686 236.913666,284.757477 237.873703,285.082184 
	C237.623062,284.001465 237.614075,282.770752 237.060211,281.878174 
	C236.377182,280.777466 235.237961,279.960815 234.300598,279.016724 
	C230.902954,275.594788 227.507248,272.170898 223.060135,267.688782 
	C227.850601,267.688782 230.915710,267.688782 234.205734,267.688782 
	C232.594986,264.688232 226.814865,264.057434 217.965012,265.612701 
	C217.965012,268.811127 217.965012,272.097351 217.965439,276.339478 
z"/>
<path fill="#928157" opacity="1.000000" stroke="none" 
	d="
M210.847137,344.588654 
	C234.994339,344.186798 259.253906,344.080994 283.513580,344.015198 
	C297.007935,343.978577 296.995911,344.008636 297.011078,330.453949 
	C297.035614,308.516479 297.077911,286.579010 297.212769,264.160645 
	C309.592407,273.836243 315.438660,287.283478 316.564056,302.805603 
	C318.409668,328.261444 304.461456,351.357178 281.573456,361.511108 
	C258.476227,371.757843 231.875824,366.515076 214.014740,348.187653 
	C212.971130,347.116791 211.976791,345.997955 210.847137,344.588654 
z"/>
<path fill="#928866" opacity="1.000000" stroke="none" 
	d="
M225.282425,245.959579 
	C224.456299,245.981155 224.042557,245.992493 223.317657,246.002686 
	C214.972092,237.696198 206.745682,229.565475 198.975433,221.019958 
	C194.325821,215.906494 190.390152,210.143860 186.111725,204.322205 
	C187.085602,204.512466 188.341995,204.828140 189.035645,205.630402 
	C194.413361,211.849930 199.433151,218.397278 205.051956,224.385010 
	C211.239883,230.979263 217.892365,237.144455 224.483978,243.346161 
	C225.551010,244.350082 227.352905,244.572983 228.892487,245.501297 
	C227.878189,245.880234 226.786514,245.914780 225.282425,245.959579 
z"/>
<path fill="#928866" opacity="1.000000" stroke="none" 
	d="
M335.929626,189.667175 
	C334.395020,189.350250 332.344421,189.138458 331.205353,188.008102 
	C321.067871,177.948090 311.059113,167.757187 301.106934,157.513031 
	C299.803711,156.171585 299.034363,154.311447 298.024841,152.323944 
	C303.053070,156.738663 308.158630,161.436050 313.075897,166.322952 
	C320.729950,173.929749 328.256042,181.665329 335.929626,189.667175 
z"/>
<path fill="#7E7C76" opacity="1.000000" stroke="none" 
	d="
M296.833466,260.671082 
	C291.796844,256.406738 286.872803,251.687454 281.905396,246.637238 
	C296.810394,245.128113 297.578949,246.594238 296.833466,260.671082 
z"/>
<path fill="#928866" opacity="1.000000" stroke="none" 
	d="
M187.250381,146.961365 
	C187.451797,148.386353 187.992523,150.376709 187.249146,151.561050 
	C182.354111,159.359711 181.639786,168.110413 181.229111,176.888016 
	C181.022202,181.310562 181.565720,185.768188 181.548050,190.536835 
	C177.687820,181.538132 178.646271,171.998901 180.813309,162.680328 
	C182.060837,157.315720 184.882599,152.317215 187.250381,146.961365 
z"/>
<path fill="#928866" opacity="1.000000" stroke="none" 
	d="
M272.183319,127.556000 
	C270.473267,127.465065 268.196655,127.621910 266.775726,126.594849 
	C259.617035,121.420525 251.275558,120.179581 242.929199,119.055740 
	C238.876694,118.510078 234.722672,118.718399 230.310577,118.302299 
	C245.319839,115.134926 259.179413,118.860123 272.183319,127.556000 
z"/>
<path fill="#928866" opacity="1.000000" stroke="none" 
	d="
M209.623260,124.917839 
	C206.361252,128.358231 202.611191,131.697067 199.158340,135.319244 
	C196.775726,137.818710 194.912079,140.806931 192.599014,143.381348 
	C191.592194,144.501923 190.039932,145.132446 188.354340,145.987793 
	C192.705734,136.582169 200.240967,130.008438 209.623260,124.917839 
z"/>
<path fill="#928866" opacity="1.000000" stroke="none" 
	d="
M287.485168,141.403687 
	C284.365784,139.528687 280.907898,137.562134 277.894043,135.060623 
	C275.928467,133.429199 274.607971,131.020615 272.986908,128.606049 
	C277.761932,132.529633 282.548523,136.807358 287.485168,141.403687 
z"/>
<path fill="#807E77" opacity="1.000000" stroke="none" 
	d="
M199.112366,334.328918 
	C202.151245,336.947113 205.110580,339.984009 208.105865,343.356140 
	C200.905685,344.370026 199.049377,342.547394 199.112366,334.328918 
z"/>
<path fill="#928866" opacity="1.000000" stroke="none" 
	d="
M228.604507,118.088440 
	C227.126236,119.177559 225.342590,120.502373 223.341553,121.226120 
	C219.320023,122.680649 215.179916,123.807327 210.914307,124.747940 
	C216.560196,122.301804 222.380493,120.177017 228.604507,118.088440 
z"/>
<path fill="#928866" opacity="1.000000" stroke="none" 
	d="
M351.197998,205.013412 
	C350.833618,205.593597 349.993683,206.206360 349.927521,206.131851 
	C346.579529,202.362427 343.297607,198.534348 340.007782,194.340485 
	C343.699158,197.554001 347.391296,201.139664 351.197998,205.013412 
z"/>
<path fill="#928866" opacity="1.000000" stroke="none" 
	d="
M297.941711,151.651779 
	C292.620728,151.411163 290.834381,146.785904 288.222839,142.752014 
	C291.463806,145.352524 294.651917,148.344025 297.941711,151.651779 
z"/>
<path fill="#928866" opacity="1.000000" stroke="none" 
	d="
M181.864059,193.442734 
	C186.417450,193.635574 184.617615,197.136658 184.827698,200.145111 
	C183.800049,198.346268 182.838745,196.086197 181.864059,193.442734 
z"/>
<path fill="#928866" opacity="1.000000" stroke="none" 
	d="
M339.500366,193.435822 
	C338.761536,193.084671 337.892914,192.427292 337.014496,191.380035 
	C337.793335,191.703293 338.581970,192.416428 339.500366,193.435822 
z"/>
<path fill="#EDEBE3" opacity="1.000000" stroke="none" 
	d="
M230.395386,307.306091 
	C233.496933,306.167236 234.348358,301.214752 239.584412,302.812714 
	C237.066620,305.558289 235.140656,307.658508 233.093414,310.035461 
	C230.201843,312.890656 227.431549,315.469147 224.661255,318.047638 
	C224.745865,318.489502 224.830460,318.931396 224.915054,319.373291 
	C227.087204,319.373291 229.281631,319.191406 231.421616,319.453674 
	C232.419708,319.575989 233.312378,320.558624 234.252838,321.151306 
	C233.376160,321.644440 232.513184,322.532776 231.620514,322.563660 
	C227.317856,322.712708 223.007202,322.630737 218.321396,322.630737 
	C218.321396,316.966431 218.321396,311.622986 218.321396,305.278229 
	C222.894302,308.388397 219.942429,312.661591 221.752686,316.434570 
	C224.688568,313.352478 227.428482,310.476105 230.395386,307.306091 
z"/>
<path fill="#F1F0E8" opacity="1.000000" stroke="none" 
	d="
M261.775391,282.403107 
	C261.433075,282.757294 261.298218,282.852295 261.152496,282.925751 
	C259.755035,283.629944 258.355743,284.330444 256.956970,285.032043 
	C257.620544,283.637115 258.284088,282.242218 259.100464,280.561707 
	C262.992035,276.339325 266.730804,272.402557 270.881714,268.031769 
	C268.381622,268.031769 265.983856,268.193024 263.626556,267.954346 
	C262.649536,267.855438 261.759155,266.900848 260.829376,266.335358 
	C261.701263,265.878510 262.561371,265.055267 263.446991,265.026917 
	C267.742371,264.889252 272.044586,264.964783 277.028046,264.964783 
	C277.028046,269.869324 277.088837,274.604095 276.955200,279.333405 
	C276.937408,279.963318 275.933319,280.565369 275.385925,281.180328 
	C274.911530,280.488739 274.077667,279.821869 274.028137,279.101044 
	C273.858093,276.626770 273.962799,274.133636 273.962799,270.197510 
	C269.471893,274.670197 265.724823,278.402069 261.775391,282.403107 
z"/>
<path fill="#F4F4F0" opacity="1.000000" stroke="none" 
	d="
M267.507263,323.099121 
	C265.020844,322.317902 262.975830,321.508636 260.930786,320.699402 
	C263.199371,320.239960 265.463348,319.755890 267.738953,319.334412 
	C268.543365,319.185425 269.376038,319.189240 270.748657,319.078766 
	C265.324554,314.195374 260.221619,309.601135 255.118668,305.006866 
	C255.706146,304.157562 256.293610,303.308258 256.881104,302.458923 
	C258.028229,302.877075 259.526245,302.970459 260.263977,303.767487 
	C264.215973,308.037140 267.978455,312.482239 271.806427,316.866699 
	C272.525269,316.479675 273.244080,316.092651 273.962921,315.705627 
	C273.962921,313.541809 273.740540,311.345032 274.054688,309.227814 
	C274.217194,308.132690 275.331421,307.178802 276.423767,306.172791 
	C276.897736,309.962921 276.707001,313.767975 277.095428,317.512939 
	C277.567017,322.059570 275.337067,323.272827 271.401459,323.038025 
	C270.255249,322.969635 269.099823,323.055817 267.507263,323.099121 
z"/>
<path fill="#F5F4F3" opacity="1.000000" stroke="none" 
	d="
M217.965225,275.861511 
	C217.965012,272.097351 217.965012,268.811127 217.965012,265.612701 
	C226.814865,264.057434 232.594986,264.688232 234.205734,267.688782 
	C230.915710,267.688782 227.850601,267.688782 223.060135,267.688782 
	C227.507248,272.170898 230.902954,275.594788 234.300598,279.016724 
	C235.237961,279.960815 236.377182,280.777466 237.060211,281.878174 
	C237.614075,282.770752 237.623062,284.001465 237.873703,285.082153 
	C236.913666,284.757477 235.704071,284.696686 235.035126,284.064117 
	C231.411499,280.637543 227.929337,277.061676 224.379623,273.556305 
	C223.579559,272.766235 222.704422,272.052155 221.296585,270.797607 
	C221.102158,274.607910 220.940292,277.780243 220.778427,280.952606 
	C220.156570,281.054749 219.534729,281.156891 218.912872,281.259033 
	C218.597061,279.619171 218.281250,277.979340 217.965225,275.861511 
z"/>
</svg>