<svg xmlns="http://www.w3.org/2000/svg" width="562" height="470" viewBox="0 0 562 470">
  <g id="Polygon_1" data-name="Polygon 1" fill="#fff">
    <path d="M 281 468.9435119628906 L 194.3304290771484 307.6133422851562 L 194.2416381835938 307.447998046875 L 194.0658569335938 307.3819274902344 L 1.421627521514893 234.9999847412109 L 194.0658569335938 162.6180572509766 L 194.2416381835938 162.5519866943359 L 194.3304290771484 162.3866271972656 L 281 1.056458711624146 L 367.6695861816406 162.3866271972656 L 367.7583618164062 162.5519866943359 L 367.9341430664062 162.6180572509766 L 560.578369140625 234.9999847412109 L 367.9341430664062 307.3819274902344 L 367.7583618164062 307.447998046875 L 367.6695861816406 307.6133422851562 L 281 468.9435119628906 Z" stroke="none"/>
    <path d="M 281 2.113067626953125 L 194.5932006835938 162.9539794921875 L 194.24169921875 163.0860595703125 L 2.84307861328125 234.9999847412109 L 194.5932006835938 307.0459899902344 L 194.7709350585938 307.376708984375 L 281 467.8869018554688 L 367.4067993164062 307.0459899902344 L 367.75830078125 306.9139099121094 L 559.1569213867188 234.9999847412109 L 367.4067993164062 162.9539794921875 L 367.2290649414062 162.6232604980469 L 281 2.113067626953125 M 281 -3.0517578125e-05 L 368.1099853515625 162.1499938964844 L 562 234.9999847412109 L 368.1099853515625 307.8499755859375 L 281 470 L 193.8900146484375 307.8499755859375 L 0 234.9999847412109 L 193.8900146484375 162.1499938964844 L 281 -3.0517578125e-05 Z" stroke="none" fill="#707070"/>
  </g>
</svg>
